<?xml version="1.0" standalone="no"?>
<!DOCTYPE svg PUBLIC "-//W3C//DTD SVG 20010904//EN"
 "http://www.w3.org/TR/2001/REC-SVG-20010904/DTD/svg10.dtd">
<svg version="1.0" xmlns="http://www.w3.org/2000/svg"
 width="173.000000pt" height="166.000000pt" viewBox="0 0 173.000000 166.000000"
 preserveAspectRatio="xMidYMid meet">

<g transform="translate(0.000000,166.000000) scale(0.100000,-0.100000)"
fill="#000000" stroke="none">
<path d="M645 1601 c-177 -53 -329 -162 -430 -310 -40 -59 -45 -72 -36 -90 7
-12 14 -50 18 -86 6 -62 5 -65 -16 -65 -89 0 -78 -80 17 -119 24 -10 31 -22
47 -82 38 -147 121 -176 135 -48 l5 48 80 -35 c44 -20 84 -39 88 -44 5 -4 1
-21 -9 -36 -10 -16 -19 -30 -19 -31 -1 -2 -71 -7 -157 -12 -152 -9 -228 -26
-228 -51 0 -24 21 -48 52 -60 18 -7 107 -16 198 -20 157 -7 220 -18 220 -39 0
-5 -16 -32 -35 -61 -25 -37 -35 -63 -35 -91 0 -21 -5 -61 -11 -89 -6 -28 -9
-53 -6 -56 2 -3 43 21 90 53 61 41 85 62 81 73 -10 24 -28 149 -23 155 3 2 31
-5 63 -17 52 -19 57 -23 51 -46 -17 -69 -18 -82 -2 -82 20 0 30 -32 22 -69 -6
-28 -98 -125 -175 -183 -19 -15 -32 -29 -29 -32 3 -3 41 -15 84 -26 95 -24
257 -27 360 -5 68 14 72 16 140 89 l70 75 31 -25 31 -25 49 39 c78 62 169 167
208 241 20 38 36 73 36 78 0 5 -47 47 -105 93 -139 110 -189 165 -230 253 -59
123 -58 245 1 333 41 60 47 91 22 116 -15 15 -28 19 -52 14 -67 -13 -109 -64
-158 -193 -36 -95 -49 -104 -113 -78 -62 26 -92 53 -220 195 -112 124 -117
132 -106 157 8 18 17 24 31 20 13 -3 30 5 50 23 16 15 45 31 65 34 19 4 35 9
35 12 0 2 -16 18 -35 35 -19 17 -43 44 -52 60 -20 33 -19 33 -98 10z m-29
-445 c43 -65 42 -81 -3 -59 -23 11 -36 26 -42 50 -9 30 -6 63 5 63 2 0 20 -24
40 -54z m-191 -121 c51 -33 83 -70 71 -82 -2 -3 -34 5 -70 17 l-66 22 0 39 c0
21 2 39 5 39 2 0 29 -16 60 -35z m359 -46 c14 -13 9 -68 -9 -95 -32 -49 -106
-54 -128 -7 -30 67 83 153 137 102z m87 -29 c17 -28 35 -48 40 -44 5 3 9 23 9
44 0 21 5 42 11 45 15 10 22 0 22 -29 l0 -25 27 29 c31 33 70 39 90 15 10 -12
9 -16 -3 -21 -9 -3 -21 -3 -27 1 -10 6 -50 -21 -50 -34 0 -3 20 -5 45 -3 25 2
45 1 45 -2 0 -20 -32 -65 -50 -71 -28 -9 -25 -19 10 -32 37 -14 50 -55 26 -82
-15 -16 -15 -22 -4 -40 10 -16 10 -23 0 -33 -9 -9 -17 -7 -35 10 -29 27 -44
28 -52 2 -7 -23 -23 -26 -31 -6 -7 17 14 137 27 152 5 6 1 17 -11 27 -11 9
-22 12 -25 7 -13 -20 -36 -9 -61 30 -28 42 -43 40 -44 -5 0 -29 -17 -52 -29
-40 -8 9 1 101 14 143 8 23 25 12 56 -38z m74 -130 c0 -10 -11 -15 -35 -15
-19 0 -41 -4 -47 -8 -24 -16 -13 -27 27 -27 28 0 40 -4 40 -14 0 -17 -22 -26
-61 -26 -22 0 -29 -5 -29 -20 0 -16 7 -20 34 -20 38 0 57 -17 35 -31 -22 -14
-85 -10 -99 6 -10 12 -10 29 0 82 17 100 13 94 77 91 44 -2 58 -7 58 -18z
m-171 4 c30 -12 18 -34 -18 -34 -44 0 -56 -17 -19 -26 50 -11 53 -13 53 -43 0
-21 -7 -35 -24 -46 -32 -21 -105 -16 -120 7 -15 24 0 34 28 18 29 -15 76 -6
76 15 0 8 -9 15 -21 15 -11 0 -29 5 -40 10 -55 30 23 108 85 84z m-44 -247
c-1 -45 -2 -50 -14 -34 -16 21 -30 22 -46 2 -15 -19 -30 -19 -30 -2 0 19 70
98 81 91 5 -3 9 -29 9 -57z m77 36 l10 -28 6 28 c4 15 14 27 22 27 11 0 15
-13 15 -55 0 -30 -4 -55 -10 -55 -5 0 -10 10 -10 22 0 22 0 22 -22 -2 l-23
-25 -3 25 -4 24 -18 -24 c-25 -33 -34 -21 -17 21 8 19 17 42 20 52 9 25 24 21
34 -10z m173 12 c13 -16 6 -51 -18 -77 -21 -24 -69 -23 -82 1 -14 27 -13 35
11 65 23 29 69 35 89 11z m91 -1 c10 -12 10 -20 1 -35 -7 -11 -10 -24 -7 -29
13 -21 -7 -29 -31 -14 -15 10 -24 12 -24 5 0 -6 -5 -11 -11 -11 -11 0 -6 71 7
92 9 14 51 9 65 -8z m37 -316 c-6 -18 -28 -21 -28 -4 0 9 7 16 16 16 9 0 14
-5 12 -12z"/>
<path d="M697 952 c-21 -23 -22 -58 -1 -66 20 -7 64 36 64 64 0 26 -40 27 -63
2z"/>
<path d="M980 898 c0 -11 38 -10 44 1 3 5 -5 8 -19 7 -14 0 -25 -4 -25 -8z"/>
<path d="M997 803 c-15 -14 -7 -43 12 -43 26 0 36 17 21 35 -14 16 -23 19 -33
8z"/>
<path d="M916 614 c-20 -20 -20 -43 -1 -50 21 -9 45 14 45 42 0 28 -21 32 -44
8z"/>
<path d="M1020 616 c0 -9 7 -16 16 -16 17 0 14 22 -4 28 -7 2 -12 -3 -12 -12z"/>
<path d="M871 1361 c-74 -7 -74 -7 33 -70 l69 -40 41 21 c23 11 43 22 45 24 2
2 -8 19 -23 39 -29 38 -29 38 -165 26z"/>
</g>
</svg>
